<?xml version="1.0" encoding="UTF-8" standalone="no"?>
<svg
   width="801.64478"
   height="749.36823"
   viewBox="0 0 801.64478 749.36823"
   version="1.1"
   id="diamond"
   xmlns="http://www.w3.org/2000/svg"
   xmlns:svg="http://www.w3.org/2000/svg">
  <defs
     id="defs2" />
  <g
     id="layer1"
     transform="translate(-270.28168,-186.48301)">
    <g
       id="g6771"
       transform="matrix(3.7795276,0,0.15748021,3.7795276,-161.75644,133.61605)">
      <g
         id="g1887">
        <path
           id="path1653"
           style="fill:none;stroke:#ff0000;stroke-width:9.258;stroke-linecap:butt;stroke-linejoin:round;stroke-miterlimit:4;stroke-dasharray:none;stroke-opacity:1"
           d="m 115.59814,80.267226 c 14.24687,-20.550173 28.49373,-41.100346 42.7406,-61.650519 m 60.97695,0.924476 c -20.32565,-0.308159 -40.6513,-0.616317 -60.97695,-0.924476 7.60125,20.954807 15.20251,41.909613 22.80376,62.86442 m 137.21236,0.708541 C 306.30303,61.15276 294.2512,40.115853 282.19937,19.078945 m -62.88368,0.462238 c 20.96123,-0.154079 41.92245,-0.308159 62.88368,-0.462238 -9.62355,20.184409 -19.24709,40.368819 -28.87064,60.553228 m -72.18623,1.848954 c 10.34561,42.049403 20.69122,84.098803 31.03683,126.148203 13.71647,-42.66572 27.43294,-85.33144 41.1494,-127.997157 -11.33768,-20.03033 -22.67536,-40.06066 -34.01304,-60.09099 -12.7244,20.646648 -25.44879,41.293296 -38.17319,61.939944 z M 115.59814,80.267226 C 147.79187,122.72126 179.9856,165.1753 212.17933,207.62933 247.57117,165.81611 282.96302,124.00289 318.35486,82.189669 250.76929,81.548855 183.18371,80.90804 115.59814,80.267226 Z" />
      </g>
    </g>
  </g>
</svg>
